<mxfile host="app.diagrams.net" modified="2022-11-15T12:38:51.449Z" agent="5.0 (Windows NT 10.0; Win64; x64) AppleWebKit/537.36 (KHTML, like Gecko) Chrome/107.0.0.0 Safari/537.36" etag="ru9gstD3nG6ZcmtsE9O6" version="20.5.3" type="github">
  <diagram id="kgpKYQtTHZ0yAKxKKP6v" name="Page-1">
    <mxGraphModel dx="668" dy="302" grid="1" gridSize="4" guides="1" tooltips="1" connect="1" arrows="1" fold="1" page="1" pageScale="1" pageWidth="850" pageHeight="1100" math="0" shadow="0">
      <root>
        <mxCell id="0" />
        <mxCell id="1" parent="0" />
        <mxCell id="3nuBFxr9cyL0pnOWT2aG-1" value="تطبيق نفاذ" style="shape=umlLifeline;perimeter=lifelinePerimeter;container=1;collapsible=0;recursiveResize=0;rounded=0;shadow=0;strokeWidth=1;fontSize=17;fillColor=#9CD67A;strokeColor=#82b366;fontColor=#FFFFFF;" parent="1" vertex="1">
          <mxGeometry x="120" y="80" width="100" height="660" as="geometry" />
        </mxCell>
        <mxCell id="CX87K9zdrq5-dQ2Ox07L-45" value="(PIN) ادخال الرمز الشخصي " style="verticalAlign=bottom;endArrow=block;shadow=0;strokeWidth=1;entryX=0.5;entryY=0.748;entryDx=0;entryDy=0;entryPerimeter=0;fontSize=14;" parent="3nuBFxr9cyL0pnOWT2aG-1" target="3nuBFxr9cyL0pnOWT2aG-1" edge="1">
          <mxGeometry x="-0.5" y="-4" relative="1" as="geometry">
            <mxPoint x="450" y="494" as="sourcePoint" />
            <mxPoint x="50.00076923076929" y="460.0000000000001" as="targetPoint" />
            <mxPoint as="offset" />
          </mxGeometry>
        </mxCell>
        <mxCell id="f84CHUhBpUdScy8MXOFQ-4" value="" style="endArrow=none;html=1;rounded=0;fontSize=14;fontColor=#FFFFFF;" parent="3nuBFxr9cyL0pnOWT2aG-1" edge="1">
          <mxGeometry width="50" height="50" relative="1" as="geometry">
            <mxPoint x="-20" y="600" as="sourcePoint" />
            <mxPoint x="40" y="600" as="targetPoint" />
          </mxGeometry>
        </mxCell>
        <mxCell id="h7IL5A9K-AtrTuV3KNeJ-23" value="التحقق من هوية المستفيد" style="verticalAlign=bottom;endArrow=block;shadow=0;strokeWidth=1;fontSize=15;exitX=0.486;exitY=0.164;exitDx=0;exitDy=0;exitPerimeter=0;" parent="3nuBFxr9cyL0pnOWT2aG-1" source="3nuBFxr9cyL0pnOWT2aG-5" edge="1">
          <mxGeometry x="0.0909" relative="1" as="geometry">
            <mxPoint x="270" y="109.99999999999994" as="sourcePoint" />
            <mxPoint x="50" y="109.99999999999994" as="targetPoint" />
            <mxPoint as="offset" />
          </mxGeometry>
        </mxCell>
        <mxCell id="3nuBFxr9cyL0pnOWT2aG-5" value="الافراغ العقاري&#xa; الالكتروني" style="shape=umlLifeline;perimeter=lifelinePerimeter;container=1;collapsible=0;recursiveResize=0;rounded=0;shadow=0;strokeWidth=1;fillColor=#000099;fontSize=12;fontColor=#FFFFFF;" parent="1" vertex="1">
          <mxGeometry x="300" y="80" width="100" height="680" as="geometry" />
        </mxCell>
        <mxCell id="f84CHUhBpUdScy8MXOFQ-3" value="قبول الطلب" style="verticalAlign=bottom;endArrow=block;shadow=0;strokeWidth=1;fontSize=16;" parent="3nuBFxr9cyL0pnOWT2aG-5" edge="1">
          <mxGeometry x="-0.499" relative="1" as="geometry">
            <mxPoint x="270.27" y="340.0000000000001" as="sourcePoint" />
            <mxPoint x="-129.99923076923073" y="340.0000000000001" as="targetPoint" />
            <mxPoint as="offset" />
          </mxGeometry>
        </mxCell>
        <mxCell id="CX87K9zdrq5-dQ2Ox07L-6" value="" style="shape=actor;whiteSpace=wrap;html=1;fontSize=16;" parent="1" vertex="1">
          <mxGeometry x="550" y="80" width="40" height="40" as="geometry" />
        </mxCell>
        <mxCell id="CX87K9zdrq5-dQ2Ox07L-14" value="" style="edgeStyle=segmentEdgeStyle;endArrow=classic;html=1;rounded=0;fontSize=12;startSize=14;endSize=14;sourcePerimeterSpacing=8;targetPerimeterSpacing=8;curved=1;" parent="1" source="3nuBFxr9cyL0pnOWT2aG-1" edge="1">
          <mxGeometry width="50" height="50" relative="1" as="geometry">
            <mxPoint x="310" y="310" as="sourcePoint" />
            <mxPoint x="170" y="280" as="targetPoint" />
            <Array as="points" />
          </mxGeometry>
        </mxCell>
        <mxCell id="CX87K9zdrq5-dQ2Ox07L-30" value="تسجيل دخول " style="verticalAlign=bottom;endArrow=block;shadow=0;strokeWidth=1;fontSize=15;" parent="1" edge="1">
          <mxGeometry x="0.0909" relative="1" as="geometry">
            <mxPoint x="570" y="160" as="sourcePoint" />
            <mxPoint x="350" y="160" as="targetPoint" />
            <mxPoint as="offset" />
          </mxGeometry>
        </mxCell>
        <mxCell id="CX87K9zdrq5-dQ2Ox07L-31" value="ادخال رقم طلب نفاذ " style="verticalAlign=bottom;endArrow=block;shadow=0;strokeWidth=1;entryX=0.52;entryY=0.664;entryDx=0;entryDy=0;entryPerimeter=0;fontSize=15;" parent="1" target="3nuBFxr9cyL0pnOWT2aG-1" edge="1">
          <mxGeometry x="-0.4975" y="-1" relative="1" as="geometry">
            <mxPoint x="570" y="520" as="sourcePoint" />
            <mxPoint x="260" y="500" as="targetPoint" />
            <mxPoint as="offset" />
          </mxGeometry>
        </mxCell>
        <mxCell id="CX87K9zdrq5-dQ2Ox07L-35" value="اختيار طلب جديد وتحديد العقار المراد افراغه" style="verticalAlign=bottom;endArrow=block;shadow=0;strokeWidth=1;fontSize=12;entryX=0.513;entryY=0.279;entryDx=0;entryDy=0;entryPerimeter=0;" parent="1" target="3nuBFxr9cyL0pnOWT2aG-5" edge="1">
          <mxGeometry x="0.0467" relative="1" as="geometry">
            <mxPoint x="570" y="270" as="sourcePoint" />
            <mxPoint x="385" y="260" as="targetPoint" />
            <mxPoint as="offset" />
          </mxGeometry>
        </mxCell>
        <mxCell id="CX87K9zdrq5-dQ2Ox07L-38" value="عرض رقم طلب نفاذ" style="verticalAlign=bottom;endArrow=block;shadow=0;strokeWidth=1;fontSize=15;" parent="1" edge="1">
          <mxGeometry y="10" relative="1" as="geometry">
            <mxPoint x="350" y="320" as="sourcePoint" />
            <mxPoint x="570" y="320" as="targetPoint" />
            <mxPoint as="offset" />
            <Array as="points">
              <mxPoint x="500" y="320" />
            </Array>
          </mxGeometry>
        </mxCell>
        <mxCell id="CX87K9zdrq5-dQ2Ox07L-44" value="عرض رسالة&#xa;&quot; لديك طلب افراغ عقاري + رقم العقار&quot;" style="verticalAlign=bottom;endArrow=block;shadow=0;strokeWidth=1;fontSize=12;" parent="1" edge="1">
          <mxGeometry x="-0.55" y="10" relative="1" as="geometry">
            <mxPoint x="170" y="370" as="sourcePoint" />
            <mxPoint x="570" y="370" as="targetPoint" />
            <mxPoint as="offset" />
            <Array as="points">
              <mxPoint x="360" y="370" />
            </Array>
          </mxGeometry>
        </mxCell>
        <mxCell id="CX87K9zdrq5-dQ2Ox07L-47" value="عرض تعليمات التقاط السمات الحيويه" style="verticalAlign=bottom;endArrow=block;shadow=0;strokeWidth=1;fontSize=13;" parent="1" edge="1">
          <mxGeometry x="-0.55" relative="1" as="geometry">
            <mxPoint x="170" y="630" as="sourcePoint" />
            <mxPoint x="570" y="630" as="targetPoint" />
            <mxPoint as="offset" />
            <Array as="points" />
          </mxGeometry>
        </mxCell>
        <mxCell id="CX87K9zdrq5-dQ2Ox07L-48" value="التقاط السمات الحيويه" style="verticalAlign=bottom;endArrow=block;shadow=0;strokeWidth=1;fontSize=15;" parent="1" edge="1">
          <mxGeometry x="-0.499" relative="1" as="geometry">
            <mxPoint x="570.27" y="680" as="sourcePoint" />
            <mxPoint x="170.00076923076927" y="680" as="targetPoint" />
            <mxPoint as="offset" />
          </mxGeometry>
        </mxCell>
        <mxCell id="CX87K9zdrq5-dQ2Ox07L-49" value="اتمام عملية التحقق وارسال الطلب" style="verticalAlign=bottom;endArrow=block;shadow=0;strokeWidth=1;exitX=0.53;exitY=0.967;exitDx=0;exitDy=0;exitPerimeter=0;fontSize=14;" parent="1" source="3nuBFxr9cyL0pnOWT2aG-1" target="3nuBFxr9cyL0pnOWT2aG-5" edge="1">
          <mxGeometry x="-0.1396" relative="1" as="geometry">
            <mxPoint x="170" y="640" as="sourcePoint" />
            <mxPoint x="360" y="718" as="targetPoint" />
            <mxPoint as="offset" />
            <Array as="points" />
          </mxGeometry>
        </mxCell>
        <mxCell id="CX87K9zdrq5-dQ2Ox07L-50" value="اكمال اجراءات الافراغ العقاري " style="verticalAlign=bottom;endArrow=block;shadow=0;strokeWidth=1;fontSize=14;" parent="1" target="3nuBFxr9cyL0pnOWT2aG-5" edge="1">
          <mxGeometry x="0.0907" y="-2" relative="1" as="geometry">
            <mxPoint x="570" y="753" as="sourcePoint" />
            <mxPoint x="350" y="800" as="targetPoint" />
            <mxPoint as="offset" />
          </mxGeometry>
        </mxCell>
        <mxCell id="CX87K9zdrq5-dQ2Ox07L-53" value="عرض صفحة اختيار رقم الطلب الصحيح " style="verticalAlign=bottom;endArrow=block;shadow=0;strokeWidth=1;exitX=0.51;exitY=0.583;exitDx=0;exitDy=0;exitPerimeter=0;fontSize=13;" parent="1" source="3nuBFxr9cyL0pnOWT2aG-1" edge="1">
          <mxGeometry x="-0.5539" y="5" relative="1" as="geometry">
            <mxPoint x="180" y="380" as="sourcePoint" />
            <mxPoint x="570" y="465" as="targetPoint" />
            <mxPoint as="offset" />
            <Array as="points" />
          </mxGeometry>
        </mxCell>
        <mxCell id="f84CHUhBpUdScy8MXOFQ-5" value="" style="endArrow=none;html=1;rounded=0;fontSize=14;fontColor=#FFFFFF;" parent="1" edge="1">
          <mxGeometry width="50" height="50" relative="1" as="geometry">
            <mxPoint x="100" y="680" as="sourcePoint" />
            <mxPoint x="100" y="710" as="targetPoint" />
          </mxGeometry>
        </mxCell>
        <mxCell id="f84CHUhBpUdScy8MXOFQ-6" value="" style="endArrow=classic;html=1;rounded=0;fontSize=14;fontColor=#FFFFFF;" parent="1" edge="1">
          <mxGeometry width="50" height="50" relative="1" as="geometry">
            <mxPoint x="100" y="710" as="sourcePoint" />
            <mxPoint x="160" y="710" as="targetPoint" />
          </mxGeometry>
        </mxCell>
        <mxCell id="CX87K9zdrq5-dQ2Ox07L-60" value="التحقق من السمات الحيويه" style="text;strokeColor=none;fillColor=none;html=1;align=center;verticalAlign=middle;whiteSpace=wrap;rounded=0;fontSize=14;" parent="1" vertex="1">
          <mxGeometry x="60" y="640" width="110" height="30" as="geometry" />
        </mxCell>
        <mxCell id="h7IL5A9K-AtrTuV3KNeJ-24" value="" style="verticalAlign=bottom;endArrow=block;shadow=0;strokeWidth=1;fontSize=15;entryX=0.458;entryY=0.219;entryDx=0;entryDy=0;entryPerimeter=0;" parent="1" source="3nuBFxr9cyL0pnOWT2aG-1" target="3nuBFxr9cyL0pnOWT2aG-5" edge="1">
          <mxGeometry x="0.3659" y="-51" relative="1" as="geometry">
            <mxPoint x="290" y="270" as="sourcePoint" />
            <mxPoint x="170" y="219.99999999999994" as="targetPoint" />
            <mxPoint as="offset" />
          </mxGeometry>
        </mxCell>
        <mxCell id="h7IL5A9K-AtrTuV3KNeJ-25" value="&lt;span style=&quot;color: rgb(0, 0, 0); font-family: Helvetica; font-size: 12px; font-style: normal; font-variant-ligatures: normal; font-variant-caps: normal; font-weight: 400; letter-spacing: normal; orphans: 2; text-align: center; text-indent: 0px; text-transform: none; widows: 2; word-spacing: 0px; -webkit-text-stroke-width: 0px; background-color: rgb(255, 255, 255); text-decoration-thickness: initial; text-decoration-style: initial; text-decoration-color: initial; float: none; display: inline !important;&quot;&gt;اتمام عملية التحقق من هوية&lt;br&gt;&amp;nbsp;المستفيد واعادة توجيهه&lt;/span&gt;" style="text;whiteSpace=wrap;html=1;fontSize=12;" parent="1" vertex="1">
          <mxGeometry x="200" y="190" width="170" height="30" as="geometry" />
        </mxCell>
        <mxCell id="QVLsyl6_nMfGHntjJc3X-1" value="" style="endArrow=none;dashed=1;html=1;rounded=0;strokeColor=#000000;entryX=0.5;entryY=1;entryDx=0;entryDy=0;" edge="1" parent="1" target="CX87K9zdrq5-dQ2Ox07L-6">
          <mxGeometry width="50" height="50" relative="1" as="geometry">
            <mxPoint x="576" y="764" as="sourcePoint" />
            <mxPoint x="758" y="228" as="targetPoint" />
          </mxGeometry>
        </mxCell>
      </root>
    </mxGraphModel>
  </diagram>
</mxfile>
